<mxfile host="app.diagrams.net" modified="2023-10-19T09:46:58.638Z" agent="Mozilla/5.0 (Windows NT 10.0; Win64; x64) AppleWebKit/537.36 (KHTML, like Gecko) Chrome/118.0.0.0 Safari/537.36" etag="bngdV0L1E2fidWcyGyja" version="21.8.2" type="device">
  <diagram name="1 oldal" id="IYVcA7oQ9cyChjYhnWGt">
    <mxGraphModel dx="2390" dy="1263" grid="1" gridSize="10" guides="1" tooltips="1" connect="1" arrows="1" fold="1" page="1" pageScale="1" pageWidth="3300" pageHeight="4681" math="0" shadow="0">
      <root>
        <mxCell id="0" />
        <mxCell id="1" parent="0" />
        <mxCell id="JYLx7IT0yjpOkWcfXpyr-12" value="FEL_ID" style="shape=rhombus;perimeter=rhombusPerimeter;whiteSpace=wrap;html=1;align=center;fontStyle=4" parent="1" vertex="1">
          <mxGeometry x="1220" y="1172.5" width="120" height="60" as="geometry" />
        </mxCell>
        <mxCell id="JYLx7IT0yjpOkWcfXpyr-13" value="FESZ_ID" style="shape=rhombus;perimeter=rhombusPerimeter;whiteSpace=wrap;html=1;align=center;fontStyle=4" parent="1" vertex="1">
          <mxGeometry x="300" y="1165" width="120" height="60" as="geometry" />
        </mxCell>
        <mxCell id="JYLx7IT0yjpOkWcfXpyr-14" value="B_ID" style="shape=rhombus;perimeter=rhombusPerimeter;whiteSpace=wrap;html=1;align=center;fontStyle=4" parent="1" vertex="1">
          <mxGeometry x="2115" y="1167.5" width="120" height="60" as="geometry" />
        </mxCell>
        <mxCell id="JYLx7IT0yjpOkWcfXpyr-15" value="A_ID" style="shape=rhombus;perimeter=rhombusPerimeter;whiteSpace=wrap;html=1;align=center;fontStyle=4" parent="1" vertex="1">
          <mxGeometry x="1670" y="1172.5" width="120" height="60" as="geometry" />
        </mxCell>
        <mxCell id="JYLx7IT0yjpOkWcfXpyr-16" value="R_ID" style="shape=rhombus;perimeter=rhombusPerimeter;whiteSpace=wrap;html=1;align=center;fontStyle=4" parent="1" vertex="1">
          <mxGeometry x="3240" y="1167.5" width="120" height="60" as="geometry" />
        </mxCell>
        <mxCell id="JYLx7IT0yjpOkWcfXpyr-17" value="NY_ID" style="shape=rhombus;perimeter=rhombusPerimeter;whiteSpace=wrap;html=1;align=center;fontStyle=4" parent="1" vertex="1">
          <mxGeometry x="2940" y="1165" width="120" height="60" as="geometry" />
        </mxCell>
        <mxCell id="JYLx7IT0yjpOkWcfXpyr-18" value="T_ID" style="shape=rhombus;perimeter=rhombusPerimeter;whiteSpace=wrap;html=1;align=center;fontStyle=4" parent="1" vertex="1">
          <mxGeometry x="690" y="1170" width="120" height="60" as="geometry" />
        </mxCell>
        <mxCell id="JYLx7IT0yjpOkWcfXpyr-19" value="név" style="ellipse;whiteSpace=wrap;html=1;align=center;" parent="1" vertex="1">
          <mxGeometry x="1370" y="1187.5" width="60" height="30" as="geometry" />
        </mxCell>
        <mxCell id="JYLx7IT0yjpOkWcfXpyr-21" value="ország" style="ellipse;whiteSpace=wrap;html=1;align=center;" parent="1" vertex="1">
          <mxGeometry x="1435" y="1187.5" width="60" height="30" as="geometry" />
        </mxCell>
        <mxCell id="JYLx7IT0yjpOkWcfXpyr-22" value="díj" style="ellipse;whiteSpace=wrap;html=1;align=center;" parent="1" vertex="1">
          <mxGeometry x="1505" y="1187.5" width="60" height="30" as="geometry" />
        </mxCell>
        <mxCell id="JYLx7IT0yjpOkWcfXpyr-23" value="" style="endArrow=none;html=1;rounded=0;exitX=0.5;exitY=1;exitDx=0;exitDy=0;entryX=0.5;entryY=0;entryDx=0;entryDy=0;" parent="1" target="JYLx7IT0yjpOkWcfXpyr-12" edge="1">
          <mxGeometry relative="1" as="geometry">
            <mxPoint x="1465" y="1137.5" as="sourcePoint" />
            <mxPoint x="1885" y="1177.5" as="targetPoint" />
          </mxGeometry>
        </mxCell>
        <mxCell id="JYLx7IT0yjpOkWcfXpyr-24" value="" style="endArrow=none;html=1;rounded=0;exitX=0.5;exitY=1;exitDx=0;exitDy=0;entryX=0.5;entryY=0;entryDx=0;entryDy=0;" parent="1" target="JYLx7IT0yjpOkWcfXpyr-19" edge="1">
          <mxGeometry relative="1" as="geometry">
            <mxPoint x="1465" y="1137.5" as="sourcePoint" />
            <mxPoint x="1885" y="1177.5" as="targetPoint" />
          </mxGeometry>
        </mxCell>
        <mxCell id="JYLx7IT0yjpOkWcfXpyr-25" value="" style="endArrow=none;html=1;rounded=0;exitX=0.5;exitY=1;exitDx=0;exitDy=0;entryX=0.5;entryY=0;entryDx=0;entryDy=0;" parent="1" target="JYLx7IT0yjpOkWcfXpyr-21" edge="1">
          <mxGeometry relative="1" as="geometry">
            <mxPoint x="1465" y="1137.5" as="sourcePoint" />
            <mxPoint x="1885" y="1177.5" as="targetPoint" />
          </mxGeometry>
        </mxCell>
        <mxCell id="JYLx7IT0yjpOkWcfXpyr-26" value="" style="endArrow=none;html=1;rounded=0;exitX=0.5;exitY=1;exitDx=0;exitDy=0;entryX=0.5;entryY=0;entryDx=0;entryDy=0;" parent="1" target="JYLx7IT0yjpOkWcfXpyr-22" edge="1">
          <mxGeometry relative="1" as="geometry">
            <mxPoint x="1465" y="1137.5" as="sourcePoint" />
            <mxPoint x="1885" y="1177.5" as="targetPoint" />
          </mxGeometry>
        </mxCell>
        <mxCell id="JYLx7IT0yjpOkWcfXpyr-27" value="név" style="ellipse;whiteSpace=wrap;html=1;align=center;" parent="1" vertex="1">
          <mxGeometry x="440" y="1180" width="60" height="30" as="geometry" />
        </mxCell>
        <mxCell id="JYLx7IT0yjpOkWcfXpyr-28" value="helyszín" style="ellipse;whiteSpace=wrap;html=1;align=center;" parent="1" vertex="1">
          <mxGeometry x="520" y="1180" width="60" height="30" as="geometry" />
        </mxCell>
        <mxCell id="JYLx7IT0yjpOkWcfXpyr-29" value="év" style="ellipse;whiteSpace=wrap;html=1;align=center;" parent="1" vertex="1">
          <mxGeometry x="590" y="1180" width="60" height="30" as="geometry" />
        </mxCell>
        <mxCell id="JYLx7IT0yjpOkWcfXpyr-30" value="" style="endArrow=none;html=1;rounded=0;exitX=0.5;exitY=1;exitDx=0;exitDy=0;entryX=0.5;entryY=0;entryDx=0;entryDy=0;" parent="1" target="JYLx7IT0yjpOkWcfXpyr-27" edge="1">
          <mxGeometry relative="1" as="geometry">
            <mxPoint x="545.0000000000009" y="1130" as="sourcePoint" />
            <mxPoint x="785" y="990" as="targetPoint" />
          </mxGeometry>
        </mxCell>
        <mxCell id="JYLx7IT0yjpOkWcfXpyr-31" value="" style="endArrow=none;html=1;rounded=0;exitX=0.5;exitY=1;exitDx=0;exitDy=0;entryX=0.5;entryY=0;entryDx=0;entryDy=0;" parent="1" target="JYLx7IT0yjpOkWcfXpyr-28" edge="1">
          <mxGeometry relative="1" as="geometry">
            <mxPoint x="545.0000000000009" y="1130" as="sourcePoint" />
            <mxPoint x="785" y="990" as="targetPoint" />
          </mxGeometry>
        </mxCell>
        <mxCell id="JYLx7IT0yjpOkWcfXpyr-32" value="" style="endArrow=none;html=1;rounded=0;exitX=0.5;exitY=1;exitDx=0;exitDy=0;entryX=0.5;entryY=0;entryDx=0;entryDy=0;" parent="1" target="JYLx7IT0yjpOkWcfXpyr-29" edge="1">
          <mxGeometry relative="1" as="geometry">
            <mxPoint x="545.0000000000009" y="1130" as="sourcePoint" />
            <mxPoint x="785" y="990" as="targetPoint" />
          </mxGeometry>
        </mxCell>
        <mxCell id="JYLx7IT0yjpOkWcfXpyr-33" value="" style="endArrow=none;html=1;rounded=0;exitX=0.5;exitY=1;exitDx=0;exitDy=0;entryX=0.5;entryY=0;entryDx=0;entryDy=0;" parent="1" target="JYLx7IT0yjpOkWcfXpyr-13" edge="1">
          <mxGeometry relative="1" as="geometry">
            <mxPoint x="545.0000000000009" y="1130" as="sourcePoint" />
            <mxPoint x="785" y="990" as="targetPoint" />
          </mxGeometry>
        </mxCell>
        <mxCell id="JYLx7IT0yjpOkWcfXpyr-34" value="név" style="ellipse;whiteSpace=wrap;html=1;align=center;" parent="1" vertex="1">
          <mxGeometry x="2250" y="1180" width="60" height="30" as="geometry" />
        </mxCell>
        <mxCell id="JYLx7IT0yjpOkWcfXpyr-35" value="cég" style="ellipse;whiteSpace=wrap;html=1;align=center;" parent="1" vertex="1">
          <mxGeometry x="2320" y="1180" width="60" height="30" as="geometry" />
        </mxCell>
        <mxCell id="JYLx7IT0yjpOkWcfXpyr-36" value="ital" style="ellipse;shape=doubleEllipse;margin=3;whiteSpace=wrap;html=1;align=center;" parent="1" vertex="1">
          <mxGeometry x="2390" y="1180" width="60" height="30" as="geometry" />
        </mxCell>
        <mxCell id="JYLx7IT0yjpOkWcfXpyr-37" value="" style="endArrow=none;html=1;rounded=0;exitX=0.5;exitY=1;exitDx=0;exitDy=0;entryX=0.5;entryY=0;entryDx=0;entryDy=0;" parent="1" target="JYLx7IT0yjpOkWcfXpyr-34" edge="1">
          <mxGeometry relative="1" as="geometry">
            <mxPoint x="2350" y="1120.0000000000002" as="sourcePoint" />
            <mxPoint x="2620" y="780" as="targetPoint" />
          </mxGeometry>
        </mxCell>
        <mxCell id="JYLx7IT0yjpOkWcfXpyr-38" value="" style="endArrow=none;html=1;rounded=0;exitX=0.5;exitY=1;exitDx=0;exitDy=0;entryX=0.5;entryY=0;entryDx=0;entryDy=0;" parent="1" target="JYLx7IT0yjpOkWcfXpyr-35" edge="1">
          <mxGeometry relative="1" as="geometry">
            <mxPoint x="2350" y="1120.0000000000002" as="sourcePoint" />
            <mxPoint x="2620" y="780" as="targetPoint" />
          </mxGeometry>
        </mxCell>
        <mxCell id="JYLx7IT0yjpOkWcfXpyr-39" value="" style="endArrow=none;html=1;rounded=0;exitX=0.5;exitY=1;exitDx=0;exitDy=0;entryX=0.5;entryY=0;entryDx=0;entryDy=0;" parent="1" target="JYLx7IT0yjpOkWcfXpyr-36" edge="1">
          <mxGeometry relative="1" as="geometry">
            <mxPoint x="2350" y="1120.0000000000002" as="sourcePoint" />
            <mxPoint x="2620" y="780" as="targetPoint" />
          </mxGeometry>
        </mxCell>
        <mxCell id="JYLx7IT0yjpOkWcfXpyr-40" value="" style="endArrow=none;html=1;rounded=0;exitX=0.5;exitY=1;exitDx=0;exitDy=0;entryX=0.5;entryY=0;entryDx=0;entryDy=0;" parent="1" target="JYLx7IT0yjpOkWcfXpyr-14" edge="1">
          <mxGeometry relative="1" as="geometry">
            <mxPoint x="2350" y="1120.0000000000002" as="sourcePoint" />
            <mxPoint x="2620" y="780" as="targetPoint" />
          </mxGeometry>
        </mxCell>
        <mxCell id="JYLx7IT0yjpOkWcfXpyr-41" value="név" style="ellipse;whiteSpace=wrap;html=1;align=center;" parent="1" vertex="1">
          <mxGeometry x="1815" y="1187.5" width="60" height="30" as="geometry" />
        </mxCell>
        <mxCell id="JYLx7IT0yjpOkWcfXpyr-42" value="fizetés" style="ellipse;whiteSpace=wrap;html=1;align=center;" parent="1" vertex="1">
          <mxGeometry x="1880" y="1187.5" width="60" height="30" as="geometry" />
        </mxCell>
        <mxCell id="JYLx7IT0yjpOkWcfXpyr-43" value="műszak" style="ellipse;shape=doubleEllipse;margin=3;whiteSpace=wrap;html=1;align=center;" parent="1" vertex="1">
          <mxGeometry x="1945" y="1187.5" width="60" height="30" as="geometry" />
        </mxCell>
        <mxCell id="JYLx7IT0yjpOkWcfXpyr-44" value="" style="endArrow=none;html=1;rounded=0;exitX=0.5;exitY=1;exitDx=0;exitDy=0;entryX=0.5;entryY=0;entryDx=0;entryDy=0;" parent="1" target="JYLx7IT0yjpOkWcfXpyr-41" edge="1">
          <mxGeometry relative="1" as="geometry">
            <mxPoint x="1905.0000000000005" y="1137.4999999999998" as="sourcePoint" />
            <mxPoint x="1885" y="1337.5" as="targetPoint" />
          </mxGeometry>
        </mxCell>
        <mxCell id="JYLx7IT0yjpOkWcfXpyr-45" value="" style="endArrow=none;html=1;rounded=0;exitX=0.5;exitY=0;exitDx=0;exitDy=0;entryX=0.5;entryY=1;entryDx=0;entryDy=0;" parent="1" source="JYLx7IT0yjpOkWcfXpyr-42" edge="1">
          <mxGeometry relative="1" as="geometry">
            <mxPoint x="1725" y="1137.5" as="sourcePoint" />
            <mxPoint x="1905.0000000000005" y="1137.4999999999998" as="targetPoint" />
          </mxGeometry>
        </mxCell>
        <mxCell id="JYLx7IT0yjpOkWcfXpyr-46" value="" style="endArrow=none;html=1;rounded=0;entryX=0.5;entryY=1;entryDx=0;entryDy=0;exitX=0.5;exitY=0;exitDx=0;exitDy=0;" parent="1" source="JYLx7IT0yjpOkWcfXpyr-43" edge="1">
          <mxGeometry relative="1" as="geometry">
            <mxPoint x="1725" y="1137.5" as="sourcePoint" />
            <mxPoint x="1905.0000000000005" y="1137.4999999999998" as="targetPoint" />
          </mxGeometry>
        </mxCell>
        <mxCell id="JYLx7IT0yjpOkWcfXpyr-47" value="" style="endArrow=none;html=1;rounded=0;entryX=0.5;entryY=1;entryDx=0;entryDy=0;exitX=0.5;exitY=0;exitDx=0;exitDy=0;" parent="1" source="JYLx7IT0yjpOkWcfXpyr-15" edge="1">
          <mxGeometry relative="1" as="geometry">
            <mxPoint x="1725" y="1137.5" as="sourcePoint" />
            <mxPoint x="1905.0000000000005" y="1137.4999999999998" as="targetPoint" />
          </mxGeometry>
        </mxCell>
        <mxCell id="JYLx7IT0yjpOkWcfXpyr-48" value="név" style="ellipse;whiteSpace=wrap;html=1;align=center;" parent="1" vertex="1">
          <mxGeometry x="3385" y="1180" width="60" height="30" as="geometry" />
        </mxCell>
        <mxCell id="JYLx7IT0yjpOkWcfXpyr-49" value="lakcím" style="ellipse;whiteSpace=wrap;html=1;align=center;" parent="1" vertex="1">
          <mxGeometry x="3630" y="1182.5" width="60" height="30" as="geometry" />
        </mxCell>
        <mxCell id="JYLx7IT0yjpOkWcfXpyr-51" value="Diákigazolvány" style="ellipse;whiteSpace=wrap;html=1;align=center;dashed=1;" parent="1" vertex="1">
          <mxGeometry x="3460" y="1180" width="90" height="30" as="geometry" />
        </mxCell>
        <mxCell id="JYLx7IT0yjpOkWcfXpyr-52" value="település" style="ellipse;whiteSpace=wrap;html=1;align=center;" parent="1" vertex="1">
          <mxGeometry x="3560" y="1255" width="60" height="30" as="geometry" />
        </mxCell>
        <mxCell id="JYLx7IT0yjpOkWcfXpyr-53" value="utca" style="ellipse;whiteSpace=wrap;html=1;align=center;" parent="1" vertex="1">
          <mxGeometry x="3630" y="1255" width="60" height="30" as="geometry" />
        </mxCell>
        <mxCell id="JYLx7IT0yjpOkWcfXpyr-54" value="házszám" style="ellipse;whiteSpace=wrap;html=1;align=center;" parent="1" vertex="1">
          <mxGeometry x="3700" y="1255" width="60" height="30" as="geometry" />
        </mxCell>
        <mxCell id="JYLx7IT0yjpOkWcfXpyr-55" value="" style="endArrow=none;html=1;rounded=0;entryX=0.5;entryY=1;entryDx=0;entryDy=0;exitX=0.5;exitY=0;exitDx=0;exitDy=0;" parent="1" source="JYLx7IT0yjpOkWcfXpyr-48" target="2PH9vJhA5PezDJRlQtpC-37" edge="1">
          <mxGeometry relative="1" as="geometry">
            <mxPoint x="3385" y="1287.5" as="sourcePoint" />
            <mxPoint x="3505" y="1137.5" as="targetPoint" />
          </mxGeometry>
        </mxCell>
        <mxCell id="JYLx7IT0yjpOkWcfXpyr-56" value="" style="endArrow=none;html=1;rounded=0;entryX=0.5;entryY=0;entryDx=0;entryDy=0;" parent="1" source="2PH9vJhA5PezDJRlQtpC-37" target="JYLx7IT0yjpOkWcfXpyr-51" edge="1">
          <mxGeometry relative="1" as="geometry">
            <mxPoint x="3505" y="1137.5" as="sourcePoint" />
            <mxPoint x="3545" y="1287.5" as="targetPoint" />
          </mxGeometry>
        </mxCell>
        <mxCell id="JYLx7IT0yjpOkWcfXpyr-58" value="" style="endArrow=none;html=1;rounded=0;exitX=0.5;exitY=1;exitDx=0;exitDy=0;entryX=0.5;entryY=0;entryDx=0;entryDy=0;" parent="1" source="2PH9vJhA5PezDJRlQtpC-37" target="JYLx7IT0yjpOkWcfXpyr-16" edge="1">
          <mxGeometry relative="1" as="geometry">
            <mxPoint x="3505" y="1137.5" as="sourcePoint" />
            <mxPoint x="3540" y="1287.5" as="targetPoint" />
          </mxGeometry>
        </mxCell>
        <mxCell id="JYLx7IT0yjpOkWcfXpyr-59" value="" style="endArrow=none;html=1;rounded=0;exitX=0.5;exitY=1;exitDx=0;exitDy=0;entryX=0.5;entryY=0;entryDx=0;entryDy=0;" parent="1" source="2PH9vJhA5PezDJRlQtpC-37" target="JYLx7IT0yjpOkWcfXpyr-49" edge="1">
          <mxGeometry relative="1" as="geometry">
            <mxPoint x="3505" y="1137.5" as="sourcePoint" />
            <mxPoint x="3540" y="1287.5" as="targetPoint" />
          </mxGeometry>
        </mxCell>
        <mxCell id="JYLx7IT0yjpOkWcfXpyr-60" value="" style="endArrow=none;html=1;rounded=0;entryX=0.5;entryY=1;entryDx=0;entryDy=0;exitX=0.5;exitY=0;exitDx=0;exitDy=0;" parent="1" source="JYLx7IT0yjpOkWcfXpyr-52" target="JYLx7IT0yjpOkWcfXpyr-49" edge="1">
          <mxGeometry relative="1" as="geometry">
            <mxPoint x="3380" y="1287.5" as="sourcePoint" />
            <mxPoint x="3540" y="1287.5" as="targetPoint" />
          </mxGeometry>
        </mxCell>
        <mxCell id="JYLx7IT0yjpOkWcfXpyr-61" value="" style="endArrow=none;html=1;rounded=0;entryX=0.5;entryY=1;entryDx=0;entryDy=0;exitX=0.5;exitY=0;exitDx=0;exitDy=0;" parent="1" source="JYLx7IT0yjpOkWcfXpyr-53" target="JYLx7IT0yjpOkWcfXpyr-49" edge="1">
          <mxGeometry relative="1" as="geometry">
            <mxPoint x="3380" y="1287.5" as="sourcePoint" />
            <mxPoint x="3540" y="1287.5" as="targetPoint" />
          </mxGeometry>
        </mxCell>
        <mxCell id="JYLx7IT0yjpOkWcfXpyr-62" value="" style="endArrow=none;html=1;rounded=0;entryX=0.5;entryY=1;entryDx=0;entryDy=0;exitX=0.5;exitY=0;exitDx=0;exitDy=0;" parent="1" source="JYLx7IT0yjpOkWcfXpyr-54" target="JYLx7IT0yjpOkWcfXpyr-49" edge="1">
          <mxGeometry relative="1" as="geometry">
            <mxPoint x="3380" y="1287.5" as="sourcePoint" />
            <mxPoint x="3540" y="1287.5" as="targetPoint" />
          </mxGeometry>
        </mxCell>
        <mxCell id="JYLx7IT0yjpOkWcfXpyr-63" value="nyelv" style="ellipse;whiteSpace=wrap;html=1;align=center;" parent="1" vertex="1">
          <mxGeometry x="3080" y="1180" width="60" height="30" as="geometry" />
        </mxCell>
        <mxCell id="JYLx7IT0yjpOkWcfXpyr-64" value="szint" style="ellipse;whiteSpace=wrap;html=1;align=center;" parent="1" vertex="1">
          <mxGeometry x="3150" y="1180" width="60" height="30" as="geometry" />
        </mxCell>
        <mxCell id="JYLx7IT0yjpOkWcfXpyr-65" value="" style="endArrow=none;html=1;rounded=0;entryX=0.5;entryY=1;entryDx=0;entryDy=0;exitX=0.5;exitY=0;exitDx=0;exitDy=0;" parent="1" source="JYLx7IT0yjpOkWcfXpyr-63" edge="1">
          <mxGeometry relative="1" as="geometry">
            <mxPoint x="2470" y="1165" as="sourcePoint" />
            <mxPoint x="3110" y="1120" as="targetPoint" />
          </mxGeometry>
        </mxCell>
        <mxCell id="JYLx7IT0yjpOkWcfXpyr-66" value="" style="endArrow=none;html=1;rounded=0;entryX=0.5;entryY=1;entryDx=0;entryDy=0;exitX=0.5;exitY=0;exitDx=0;exitDy=0;" parent="1" source="JYLx7IT0yjpOkWcfXpyr-64" edge="1">
          <mxGeometry relative="1" as="geometry">
            <mxPoint x="2470" y="1165" as="sourcePoint" />
            <mxPoint x="3110" y="1120" as="targetPoint" />
          </mxGeometry>
        </mxCell>
        <mxCell id="JYLx7IT0yjpOkWcfXpyr-67" value="" style="endArrow=none;html=1;rounded=0;exitX=0.5;exitY=1;exitDx=0;exitDy=0;entryX=0.5;entryY=0;entryDx=0;entryDy=0;" parent="1" target="JYLx7IT0yjpOkWcfXpyr-17" edge="1">
          <mxGeometry relative="1" as="geometry">
            <mxPoint x="3110" y="1120" as="sourcePoint" />
            <mxPoint x="2630" y="1165" as="targetPoint" />
          </mxGeometry>
        </mxCell>
        <mxCell id="JYLx7IT0yjpOkWcfXpyr-68" value="név" style="ellipse;whiteSpace=wrap;html=1;align=center;" parent="1" vertex="1">
          <mxGeometry x="825" y="1185" width="60" height="30" as="geometry" />
        </mxCell>
        <mxCell id="JYLx7IT0yjpOkWcfXpyr-69" value="adószám" style="ellipse;whiteSpace=wrap;html=1;align=center;" parent="1" vertex="1">
          <mxGeometry x="895" y="1185" width="60" height="30" as="geometry" />
        </mxCell>
        <mxCell id="JYLx7IT0yjpOkWcfXpyr-70" value="alapítás" style="ellipse;whiteSpace=wrap;html=1;align=center;" parent="1" vertex="1">
          <mxGeometry x="970" y="1185" width="60" height="30" as="geometry" />
        </mxCell>
        <mxCell id="JYLx7IT0yjpOkWcfXpyr-71" value="bevétel" style="ellipse;whiteSpace=wrap;html=1;align=center;" parent="1" vertex="1">
          <mxGeometry x="1045" y="1185" width="60" height="30" as="geometry" />
        </mxCell>
        <mxCell id="JYLx7IT0yjpOkWcfXpyr-72" value="" style="endArrow=none;html=1;rounded=0;entryX=0.5;entryY=1;entryDx=0;entryDy=0;exitX=0.5;exitY=0;exitDx=0;exitDy=0;" parent="1" source="JYLx7IT0yjpOkWcfXpyr-68" edge="1">
          <mxGeometry relative="1" as="geometry">
            <mxPoint x="810" y="1195" as="sourcePoint" />
            <mxPoint x="1000.0000000000009" y="1135" as="targetPoint" />
          </mxGeometry>
        </mxCell>
        <mxCell id="JYLx7IT0yjpOkWcfXpyr-73" value="" style="endArrow=none;html=1;rounded=0;exitX=0.5;exitY=0;exitDx=0;exitDy=0;" parent="1" source="JYLx7IT0yjpOkWcfXpyr-69" edge="1">
          <mxGeometry relative="1" as="geometry">
            <mxPoint x="810" y="1195" as="sourcePoint" />
            <mxPoint x="1000" y="1135" as="targetPoint" />
          </mxGeometry>
        </mxCell>
        <mxCell id="JYLx7IT0yjpOkWcfXpyr-74" value="" style="endArrow=none;html=1;rounded=0;entryX=0.5;entryY=1;entryDx=0;entryDy=0;exitX=0.5;exitY=0;exitDx=0;exitDy=0;" parent="1" source="JYLx7IT0yjpOkWcfXpyr-70" edge="1">
          <mxGeometry relative="1" as="geometry">
            <mxPoint x="810" y="1195" as="sourcePoint" />
            <mxPoint x="1000.0000000000009" y="1135" as="targetPoint" />
          </mxGeometry>
        </mxCell>
        <mxCell id="JYLx7IT0yjpOkWcfXpyr-75" value="" style="endArrow=none;html=1;rounded=0;entryX=0.5;entryY=1;entryDx=0;entryDy=0;exitX=0.5;exitY=0;exitDx=0;exitDy=0;" parent="1" source="JYLx7IT0yjpOkWcfXpyr-71" target="2PH9vJhA5PezDJRlQtpC-2" edge="1">
          <mxGeometry relative="1" as="geometry">
            <mxPoint x="810" y="1195" as="sourcePoint" />
            <mxPoint x="1000.0000000000009" y="1135" as="targetPoint" />
          </mxGeometry>
        </mxCell>
        <mxCell id="JYLx7IT0yjpOkWcfXpyr-76" value="" style="endArrow=none;html=1;rounded=0;entryX=0.5;entryY=1;entryDx=0;entryDy=0;exitX=0.5;exitY=0;exitDx=0;exitDy=0;" parent="1" source="JYLx7IT0yjpOkWcfXpyr-18" edge="1">
          <mxGeometry relative="1" as="geometry">
            <mxPoint x="810" y="1195" as="sourcePoint" />
            <mxPoint x="1000.0000000000009" y="1135" as="targetPoint" />
          </mxGeometry>
        </mxCell>
        <mxCell id="JYLx7IT0yjpOkWcfXpyr-77" value="" style="rounded=0;whiteSpace=wrap;html=1;rotation=90;" parent="1" vertex="1">
          <mxGeometry x="1865" y="1257.5" width="90" height="40" as="geometry" />
        </mxCell>
        <mxCell id="JYLx7IT0yjpOkWcfXpyr-78" value="" style="rounded=0;whiteSpace=wrap;html=1;rotation=90;" parent="1" vertex="1">
          <mxGeometry x="1800" y="1257.5" width="90" height="40" as="geometry" />
        </mxCell>
        <mxCell id="JYLx7IT0yjpOkWcfXpyr-79" value="" style="endArrow=none;html=1;rounded=0;exitX=0;exitY=0.5;exitDx=0;exitDy=0;entryX=0.5;entryY=1;entryDx=0;entryDy=0;" parent="1" source="JYLx7IT0yjpOkWcfXpyr-77" target="JYLx7IT0yjpOkWcfXpyr-42" edge="1">
          <mxGeometry relative="1" as="geometry">
            <mxPoint x="1850" y="1297.5" as="sourcePoint" />
            <mxPoint x="2010" y="1297.5" as="targetPoint" />
          </mxGeometry>
        </mxCell>
        <mxCell id="JYLx7IT0yjpOkWcfXpyr-80" value="" style="endArrow=none;html=1;rounded=0;exitX=0;exitY=0.5;exitDx=0;exitDy=0;entryX=0.5;entryY=1;entryDx=0;entryDy=0;" parent="1" source="JYLx7IT0yjpOkWcfXpyr-78" target="JYLx7IT0yjpOkWcfXpyr-41" edge="1">
          <mxGeometry relative="1" as="geometry">
            <mxPoint x="1800" y="1257.5" as="sourcePoint" />
            <mxPoint x="1960" y="1257.5" as="targetPoint" />
          </mxGeometry>
        </mxCell>
        <mxCell id="JYLx7IT0yjpOkWcfXpyr-81" value="" style="rounded=0;whiteSpace=wrap;html=1;rotation=90;" parent="1" vertex="1">
          <mxGeometry x="1490" y="1257.5" width="90" height="40" as="geometry" />
        </mxCell>
        <mxCell id="JYLx7IT0yjpOkWcfXpyr-82" value="" style="rounded=0;whiteSpace=wrap;html=1;rotation=90;" parent="1" vertex="1">
          <mxGeometry x="1420" y="1257.5" width="90" height="40" as="geometry" />
        </mxCell>
        <mxCell id="JYLx7IT0yjpOkWcfXpyr-83" value="" style="rounded=0;whiteSpace=wrap;html=1;rotation=90;" parent="1" vertex="1">
          <mxGeometry x="1355" y="1257.5" width="90" height="40" as="geometry" />
        </mxCell>
        <mxCell id="JYLx7IT0yjpOkWcfXpyr-84" value="" style="endArrow=none;html=1;rounded=0;exitX=0;exitY=0.5;exitDx=0;exitDy=0;entryX=0.5;entryY=1;entryDx=0;entryDy=0;" parent="1" source="JYLx7IT0yjpOkWcfXpyr-83" target="JYLx7IT0yjpOkWcfXpyr-19" edge="1">
          <mxGeometry relative="1" as="geometry">
            <mxPoint x="1695" y="1257.5" as="sourcePoint" />
            <mxPoint x="1855" y="1257.5" as="targetPoint" />
          </mxGeometry>
        </mxCell>
        <mxCell id="JYLx7IT0yjpOkWcfXpyr-85" value="" style="endArrow=none;html=1;rounded=0;exitX=0;exitY=0.5;exitDx=0;exitDy=0;entryX=0.5;entryY=1;entryDx=0;entryDy=0;" parent="1" source="JYLx7IT0yjpOkWcfXpyr-82" target="JYLx7IT0yjpOkWcfXpyr-21" edge="1">
          <mxGeometry relative="1" as="geometry">
            <mxPoint x="1575" y="1257.5" as="sourcePoint" />
            <mxPoint x="1735" y="1257.5" as="targetPoint" />
          </mxGeometry>
        </mxCell>
        <mxCell id="JYLx7IT0yjpOkWcfXpyr-86" value="" style="endArrow=none;html=1;rounded=0;exitX=0;exitY=0.5;exitDx=0;exitDy=0;entryX=0.5;entryY=1;entryDx=0;entryDy=0;" parent="1" source="JYLx7IT0yjpOkWcfXpyr-81" target="JYLx7IT0yjpOkWcfXpyr-22" edge="1">
          <mxGeometry relative="1" as="geometry">
            <mxPoint x="1570" y="1257.5" as="sourcePoint" />
            <mxPoint x="1730" y="1257.5" as="targetPoint" />
          </mxGeometry>
        </mxCell>
        <mxCell id="JYLx7IT0yjpOkWcfXpyr-87" value="" style="rounded=0;whiteSpace=wrap;html=1;rotation=90;" parent="1" vertex="1">
          <mxGeometry x="575" y="1260" width="90" height="40" as="geometry" />
        </mxCell>
        <mxCell id="JYLx7IT0yjpOkWcfXpyr-88" value="" style="rounded=0;whiteSpace=wrap;html=1;rotation=90;" parent="1" vertex="1">
          <mxGeometry x="505" y="1260" width="90" height="40" as="geometry" />
        </mxCell>
        <mxCell id="JYLx7IT0yjpOkWcfXpyr-89" value="" style="rounded=0;whiteSpace=wrap;html=1;rotation=90;" parent="1" vertex="1">
          <mxGeometry x="425" y="1260" width="90" height="40" as="geometry" />
        </mxCell>
        <mxCell id="JYLx7IT0yjpOkWcfXpyr-90" value="" style="endArrow=none;html=1;rounded=0;exitX=0;exitY=0.5;exitDx=0;exitDy=0;entryX=0.5;entryY=1;entryDx=0;entryDy=0;" parent="1" source="JYLx7IT0yjpOkWcfXpyr-89" target="JYLx7IT0yjpOkWcfXpyr-27" edge="1">
          <mxGeometry relative="1" as="geometry">
            <mxPoint x="455" y="1160" as="sourcePoint" />
            <mxPoint x="615" y="1160" as="targetPoint" />
          </mxGeometry>
        </mxCell>
        <mxCell id="JYLx7IT0yjpOkWcfXpyr-91" value="" style="endArrow=none;html=1;rounded=0;exitX=0;exitY=0.5;exitDx=0;exitDy=0;entryX=0.5;entryY=1;entryDx=0;entryDy=0;" parent="1" source="JYLx7IT0yjpOkWcfXpyr-88" target="JYLx7IT0yjpOkWcfXpyr-28" edge="1">
          <mxGeometry relative="1" as="geometry">
            <mxPoint x="455" y="1160" as="sourcePoint" />
            <mxPoint x="615" y="1160" as="targetPoint" />
          </mxGeometry>
        </mxCell>
        <mxCell id="JYLx7IT0yjpOkWcfXpyr-92" value="" style="endArrow=none;html=1;rounded=0;exitX=0;exitY=0.5;exitDx=0;exitDy=0;entryX=0.5;entryY=1;entryDx=0;entryDy=0;" parent="1" source="JYLx7IT0yjpOkWcfXpyr-87" target="JYLx7IT0yjpOkWcfXpyr-29" edge="1">
          <mxGeometry relative="1" as="geometry">
            <mxPoint x="455" y="1160" as="sourcePoint" />
            <mxPoint x="615" y="1160" as="targetPoint" />
          </mxGeometry>
        </mxCell>
        <mxCell id="JYLx7IT0yjpOkWcfXpyr-93" value="" style="rounded=0;whiteSpace=wrap;html=1;rotation=90;" parent="1" vertex="1">
          <mxGeometry x="3065" y="1250" width="90" height="40" as="geometry" />
        </mxCell>
        <mxCell id="JYLx7IT0yjpOkWcfXpyr-94" value="" style="rounded=0;whiteSpace=wrap;html=1;rotation=90;" parent="1" vertex="1">
          <mxGeometry x="3135" y="1250" width="90" height="40" as="geometry" />
        </mxCell>
        <mxCell id="JYLx7IT0yjpOkWcfXpyr-95" value="" style="endArrow=none;html=1;rounded=0;entryX=0.5;entryY=1;entryDx=0;entryDy=0;exitX=0;exitY=0.5;exitDx=0;exitDy=0;" parent="1" source="JYLx7IT0yjpOkWcfXpyr-93" target="JYLx7IT0yjpOkWcfXpyr-63" edge="1">
          <mxGeometry relative="1" as="geometry">
            <mxPoint x="2780" y="1245" as="sourcePoint" />
            <mxPoint x="2940" y="1245" as="targetPoint" />
          </mxGeometry>
        </mxCell>
        <mxCell id="JYLx7IT0yjpOkWcfXpyr-96" value="" style="endArrow=none;html=1;rounded=0;entryX=0.5;entryY=1;entryDx=0;entryDy=0;exitX=0;exitY=0.5;exitDx=0;exitDy=0;" parent="1" source="JYLx7IT0yjpOkWcfXpyr-94" target="JYLx7IT0yjpOkWcfXpyr-64" edge="1">
          <mxGeometry relative="1" as="geometry">
            <mxPoint x="2780" y="1245" as="sourcePoint" />
            <mxPoint x="2940" y="1245" as="targetPoint" />
          </mxGeometry>
        </mxCell>
        <mxCell id="JYLx7IT0yjpOkWcfXpyr-97" value="" style="rounded=0;whiteSpace=wrap;html=1;rotation=90;" parent="1" vertex="1">
          <mxGeometry x="2305" y="1250" width="90" height="40" as="geometry" />
        </mxCell>
        <mxCell id="JYLx7IT0yjpOkWcfXpyr-98" value="" style="rounded=0;whiteSpace=wrap;html=1;rotation=90;" parent="1" vertex="1">
          <mxGeometry x="2235" y="1250" width="90" height="40" as="geometry" />
        </mxCell>
        <mxCell id="JYLx7IT0yjpOkWcfXpyr-99" value="" style="endArrow=none;html=1;rounded=0;exitX=0;exitY=0.5;exitDx=0;exitDy=0;" parent="1" source="JYLx7IT0yjpOkWcfXpyr-98" target="JYLx7IT0yjpOkWcfXpyr-34" edge="1">
          <mxGeometry relative="1" as="geometry">
            <mxPoint x="2270" y="1260" as="sourcePoint" />
            <mxPoint x="2430" y="1260" as="targetPoint" />
          </mxGeometry>
        </mxCell>
        <mxCell id="JYLx7IT0yjpOkWcfXpyr-100" value="" style="endArrow=none;html=1;rounded=0;exitX=0;exitY=0.5;exitDx=0;exitDy=0;entryX=0.5;entryY=1;entryDx=0;entryDy=0;" parent="1" source="JYLx7IT0yjpOkWcfXpyr-97" target="JYLx7IT0yjpOkWcfXpyr-35" edge="1">
          <mxGeometry relative="1" as="geometry">
            <mxPoint x="2450" y="1310" as="sourcePoint" />
            <mxPoint x="2430" y="1260" as="targetPoint" />
          </mxGeometry>
        </mxCell>
        <mxCell id="JYLx7IT0yjpOkWcfXpyr-101" value="" style="rounded=0;whiteSpace=wrap;html=1;rotation=90;" parent="1" vertex="1">
          <mxGeometry x="3370" y="1250" width="90" height="40" as="geometry" />
        </mxCell>
        <mxCell id="JYLx7IT0yjpOkWcfXpyr-111" value="" style="rounded=0;whiteSpace=wrap;html=1;rotation=90;" parent="1" vertex="1">
          <mxGeometry x="810" y="1255" width="90" height="40" as="geometry" />
        </mxCell>
        <mxCell id="JYLx7IT0yjpOkWcfXpyr-112" value="" style="rounded=0;whiteSpace=wrap;html=1;rotation=90;" parent="1" vertex="1">
          <mxGeometry x="880" y="1255" width="90" height="40" as="geometry" />
        </mxCell>
        <mxCell id="JYLx7IT0yjpOkWcfXpyr-113" value="" style="rounded=0;whiteSpace=wrap;html=1;rotation=90;" parent="1" vertex="1">
          <mxGeometry x="955" y="1255" width="90" height="40" as="geometry" />
        </mxCell>
        <mxCell id="JYLx7IT0yjpOkWcfXpyr-114" value="" style="rounded=0;whiteSpace=wrap;html=1;rotation=90;" parent="1" vertex="1">
          <mxGeometry x="1030" y="1255" width="90" height="40" as="geometry" />
        </mxCell>
        <mxCell id="JYLx7IT0yjpOkWcfXpyr-115" value="" style="endArrow=none;html=1;rounded=0;exitX=0;exitY=0.5;exitDx=0;exitDy=0;entryX=0.5;entryY=1;entryDx=0;entryDy=0;" parent="1" source="JYLx7IT0yjpOkWcfXpyr-111" target="JYLx7IT0yjpOkWcfXpyr-68" edge="1">
          <mxGeometry relative="1" as="geometry">
            <mxPoint x="740" y="1285" as="sourcePoint" />
            <mxPoint x="900" y="1285" as="targetPoint" />
          </mxGeometry>
        </mxCell>
        <mxCell id="JYLx7IT0yjpOkWcfXpyr-116" value="" style="endArrow=none;html=1;rounded=0;exitX=0;exitY=0.5;exitDx=0;exitDy=0;entryX=0.5;entryY=1;entryDx=0;entryDy=0;" parent="1" source="JYLx7IT0yjpOkWcfXpyr-112" target="JYLx7IT0yjpOkWcfXpyr-69" edge="1">
          <mxGeometry relative="1" as="geometry">
            <mxPoint x="740" y="1285" as="sourcePoint" />
            <mxPoint x="900" y="1285" as="targetPoint" />
          </mxGeometry>
        </mxCell>
        <mxCell id="JYLx7IT0yjpOkWcfXpyr-117" value="" style="endArrow=none;html=1;rounded=0;exitX=0;exitY=0.5;exitDx=0;exitDy=0;entryX=0.5;entryY=1;entryDx=0;entryDy=0;" parent="1" source="JYLx7IT0yjpOkWcfXpyr-113" target="JYLx7IT0yjpOkWcfXpyr-70" edge="1">
          <mxGeometry relative="1" as="geometry">
            <mxPoint x="740" y="1285" as="sourcePoint" />
            <mxPoint x="900" y="1285" as="targetPoint" />
          </mxGeometry>
        </mxCell>
        <mxCell id="JYLx7IT0yjpOkWcfXpyr-118" value="" style="endArrow=none;html=1;rounded=0;exitX=0;exitY=0.5;exitDx=0;exitDy=0;entryX=0.5;entryY=1;entryDx=0;entryDy=0;" parent="1" source="JYLx7IT0yjpOkWcfXpyr-114" target="JYLx7IT0yjpOkWcfXpyr-71" edge="1">
          <mxGeometry relative="1" as="geometry">
            <mxPoint x="740" y="1285" as="sourcePoint" />
            <mxPoint x="900" y="1285" as="targetPoint" />
          </mxGeometry>
        </mxCell>
        <mxCell id="2PH9vJhA5PezDJRlQtpC-1" value="Fesztivál" style="ellipse;shape=doubleEllipse;margin=3;whiteSpace=wrap;html=1;align=center;" vertex="1" parent="1">
          <mxGeometry x="495" y="1090" width="100" height="40" as="geometry" />
        </mxCell>
        <mxCell id="2PH9vJhA5PezDJRlQtpC-2" value="Tulajdonos" style="ellipse;shape=doubleEllipse;margin=3;whiteSpace=wrap;html=1;align=center;" vertex="1" parent="1">
          <mxGeometry x="950" y="1095" width="100" height="40" as="geometry" />
        </mxCell>
        <mxCell id="2PH9vJhA5PezDJRlQtpC-3" value="Fellépő" style="ellipse;shape=doubleEllipse;margin=3;whiteSpace=wrap;html=1;align=center;" vertex="1" parent="1">
          <mxGeometry x="1415" y="1097.5" width="100" height="40" as="geometry" />
        </mxCell>
        <mxCell id="2PH9vJhA5PezDJRlQtpC-4" value="" style="rounded=0;whiteSpace=wrap;html=1;rotation=90;" vertex="1" parent="1">
          <mxGeometry x="1930" y="1257.5" width="90" height="40" as="geometry" />
        </mxCell>
        <mxCell id="2PH9vJhA5PezDJRlQtpC-5" value="" style="endArrow=none;html=1;rounded=0;entryX=0;entryY=0.5;entryDx=0;entryDy=0;exitX=0.5;exitY=1;exitDx=0;exitDy=0;" edge="1" parent="1" source="JYLx7IT0yjpOkWcfXpyr-43" target="2PH9vJhA5PezDJRlQtpC-4">
          <mxGeometry relative="1" as="geometry">
            <mxPoint x="1690" y="1287.5" as="sourcePoint" />
            <mxPoint x="1850" y="1287.5" as="targetPoint" />
          </mxGeometry>
        </mxCell>
        <mxCell id="2PH9vJhA5PezDJRlQtpC-6" value="Alkalmazott" style="ellipse;shape=doubleEllipse;margin=3;whiteSpace=wrap;html=1;align=center;" vertex="1" parent="1">
          <mxGeometry x="1855" y="1097.5" width="100" height="40" as="geometry" />
        </mxCell>
        <mxCell id="2PH9vJhA5PezDJRlQtpC-7" value="" style="rounded=0;whiteSpace=wrap;html=1;rotation=90;" vertex="1" parent="1">
          <mxGeometry x="2375" y="1250" width="90" height="40" as="geometry" />
        </mxCell>
        <mxCell id="2PH9vJhA5PezDJRlQtpC-12" value="" style="endArrow=none;html=1;rounded=0;entryX=0;entryY=0.5;entryDx=0;entryDy=0;exitX=0.5;exitY=1;exitDx=0;exitDy=0;" edge="1" parent="1" source="JYLx7IT0yjpOkWcfXpyr-36" target="2PH9vJhA5PezDJRlQtpC-7">
          <mxGeometry relative="1" as="geometry">
            <mxPoint x="2170" y="1230" as="sourcePoint" />
            <mxPoint x="2330" y="1230" as="targetPoint" />
          </mxGeometry>
        </mxCell>
        <mxCell id="2PH9vJhA5PezDJRlQtpC-14" value="Bár" style="ellipse;shape=doubleEllipse;margin=3;whiteSpace=wrap;html=1;align=center;" vertex="1" parent="1">
          <mxGeometry x="2300" y="1080" width="100" height="40" as="geometry" />
        </mxCell>
        <mxCell id="2PH9vJhA5PezDJRlQtpC-15" value="K_ID" style="shape=rhombus;perimeter=rhombusPerimeter;whiteSpace=wrap;html=1;align=center;fontStyle=4" vertex="1" parent="1">
          <mxGeometry x="2540" y="1165" width="120" height="60" as="geometry" />
        </mxCell>
        <mxCell id="2PH9vJhA5PezDJRlQtpC-16" value="Kérdező" style="ellipse;whiteSpace=wrap;html=1;align=center;" vertex="1" parent="1">
          <mxGeometry x="2670" y="1180" width="60" height="30" as="geometry" />
        </mxCell>
        <mxCell id="2PH9vJhA5PezDJRlQtpC-19" value="" style="endArrow=none;html=1;rounded=0;exitX=0.5;exitY=1;exitDx=0;exitDy=0;entryX=0.5;entryY=0;entryDx=0;entryDy=0;" edge="1" parent="1" target="2PH9vJhA5PezDJRlQtpC-16">
          <mxGeometry relative="1" as="geometry">
            <mxPoint x="2700" y="1120.0000000000002" as="sourcePoint" />
            <mxPoint x="2970" y="780" as="targetPoint" />
          </mxGeometry>
        </mxCell>
        <mxCell id="2PH9vJhA5PezDJRlQtpC-22" value="" style="endArrow=none;html=1;rounded=0;exitX=0.5;exitY=1;exitDx=0;exitDy=0;entryX=0.5;entryY=0;entryDx=0;entryDy=0;" edge="1" parent="1" target="2PH9vJhA5PezDJRlQtpC-15">
          <mxGeometry relative="1" as="geometry">
            <mxPoint x="2700" y="1120.0000000000002" as="sourcePoint" />
            <mxPoint x="2970" y="780" as="targetPoint" />
          </mxGeometry>
        </mxCell>
        <mxCell id="2PH9vJhA5PezDJRlQtpC-24" value="" style="rounded=0;whiteSpace=wrap;html=1;rotation=90;" vertex="1" parent="1">
          <mxGeometry x="2655" y="1250" width="90" height="40" as="geometry" />
        </mxCell>
        <mxCell id="2PH9vJhA5PezDJRlQtpC-25" value="" style="endArrow=none;html=1;rounded=0;exitX=0;exitY=0.5;exitDx=0;exitDy=0;" edge="1" parent="1" source="2PH9vJhA5PezDJRlQtpC-24" target="2PH9vJhA5PezDJRlQtpC-16">
          <mxGeometry relative="1" as="geometry">
            <mxPoint x="2690" y="1260" as="sourcePoint" />
            <mxPoint x="2850" y="1260" as="targetPoint" />
          </mxGeometry>
        </mxCell>
        <mxCell id="2PH9vJhA5PezDJRlQtpC-29" value="Közvélemény" style="ellipse;shape=doubleEllipse;margin=3;whiteSpace=wrap;html=1;align=center;" vertex="1" parent="1">
          <mxGeometry x="2650" y="1080" width="100" height="40" as="geometry" />
        </mxCell>
        <mxCell id="2PH9vJhA5PezDJRlQtpC-31" value="Nyelvtudás" style="ellipse;shape=doubleEllipse;margin=3;whiteSpace=wrap;html=1;align=center;" vertex="1" parent="1">
          <mxGeometry x="3060" y="1080" width="100" height="40" as="geometry" />
        </mxCell>
        <mxCell id="2PH9vJhA5PezDJRlQtpC-33" value="" style="endArrow=none;html=1;rounded=0;exitX=0.5;exitY=1;exitDx=0;exitDy=0;entryX=0;entryY=0.5;entryDx=0;entryDy=0;" edge="1" parent="1" source="JYLx7IT0yjpOkWcfXpyr-48" target="JYLx7IT0yjpOkWcfXpyr-101">
          <mxGeometry relative="1" as="geometry">
            <mxPoint x="3410" y="1357.5" as="sourcePoint" />
            <mxPoint x="3570" y="1357.5" as="targetPoint" />
          </mxGeometry>
        </mxCell>
        <mxCell id="2PH9vJhA5PezDJRlQtpC-35" value="" style="rounded=0;whiteSpace=wrap;html=1;rotation=90;" vertex="1" parent="1">
          <mxGeometry x="3460" y="1250" width="90" height="40" as="geometry" />
        </mxCell>
        <mxCell id="2PH9vJhA5PezDJRlQtpC-36" value="" style="endArrow=none;html=1;rounded=0;entryX=0.5;entryY=1;entryDx=0;entryDy=0;exitX=0;exitY=0.5;exitDx=0;exitDy=0;" edge="1" parent="1" source="2PH9vJhA5PezDJRlQtpC-35" target="JYLx7IT0yjpOkWcfXpyr-51">
          <mxGeometry relative="1" as="geometry">
            <mxPoint x="3390" y="1307.5" as="sourcePoint" />
            <mxPoint x="3550" y="1307.5" as="targetPoint" />
          </mxGeometry>
        </mxCell>
        <mxCell id="2PH9vJhA5PezDJRlQtpC-37" value="Résztvevő" style="ellipse;shape=doubleEllipse;margin=3;whiteSpace=wrap;html=1;align=center;" vertex="1" parent="1">
          <mxGeometry x="3455" y="1080" width="100" height="40" as="geometry" />
        </mxCell>
        <mxCell id="2PH9vJhA5PezDJRlQtpC-38" value="Fesztivál_ZUYISF" style="ellipse;whiteSpace=wrap;html=1;align=center;" vertex="1" parent="1">
          <mxGeometry x="2070" y="550" width="120" height="50" as="geometry" />
        </mxCell>
        <mxCell id="2PH9vJhA5PezDJRlQtpC-39" value="" style="endArrow=none;html=1;rounded=0;entryX=0.5;entryY=1;entryDx=0;entryDy=0;exitX=0.5;exitY=0;exitDx=0;exitDy=0;" edge="1" parent="1" source="2PH9vJhA5PezDJRlQtpC-6" target="2PH9vJhA5PezDJRlQtpC-38">
          <mxGeometry relative="1" as="geometry">
            <mxPoint x="1930" y="900" as="sourcePoint" />
            <mxPoint x="2090" y="900" as="targetPoint" />
          </mxGeometry>
        </mxCell>
        <mxCell id="2PH9vJhA5PezDJRlQtpC-40" value="" style="endArrow=none;html=1;rounded=0;entryX=0.5;entryY=1;entryDx=0;entryDy=0;exitX=0.5;exitY=0;exitDx=0;exitDy=0;" edge="1" parent="1" source="2PH9vJhA5PezDJRlQtpC-14" target="2PH9vJhA5PezDJRlQtpC-38">
          <mxGeometry relative="1" as="geometry">
            <mxPoint x="1950" y="1100" as="sourcePoint" />
            <mxPoint x="2140" y="610" as="targetPoint" />
          </mxGeometry>
        </mxCell>
        <mxCell id="2PH9vJhA5PezDJRlQtpC-41" value="" style="endArrow=none;html=1;rounded=0;entryX=0.5;entryY=1;entryDx=0;entryDy=0;exitX=0.5;exitY=0;exitDx=0;exitDy=0;" edge="1" parent="1" source="2PH9vJhA5PezDJRlQtpC-3" target="2PH9vJhA5PezDJRlQtpC-38">
          <mxGeometry relative="1" as="geometry">
            <mxPoint x="1960" y="1110" as="sourcePoint" />
            <mxPoint x="2150" y="620" as="targetPoint" />
          </mxGeometry>
        </mxCell>
        <mxCell id="2PH9vJhA5PezDJRlQtpC-42" value="" style="endArrow=none;html=1;rounded=0;entryX=0.5;entryY=1;entryDx=0;entryDy=0;exitX=0.5;exitY=0;exitDx=0;exitDy=0;" edge="1" parent="1" source="2PH9vJhA5PezDJRlQtpC-29" target="2PH9vJhA5PezDJRlQtpC-38">
          <mxGeometry relative="1" as="geometry">
            <mxPoint x="1970" y="1120" as="sourcePoint" />
            <mxPoint x="2160" y="630" as="targetPoint" />
          </mxGeometry>
        </mxCell>
        <mxCell id="2PH9vJhA5PezDJRlQtpC-43" value="" style="endArrow=none;html=1;rounded=0;entryX=0;entryY=1;entryDx=0;entryDy=0;exitX=0.5;exitY=0;exitDx=0;exitDy=0;" edge="1" parent="1" source="2PH9vJhA5PezDJRlQtpC-2" target="2PH9vJhA5PezDJRlQtpC-38">
          <mxGeometry relative="1" as="geometry">
            <mxPoint x="1980" y="1130" as="sourcePoint" />
            <mxPoint x="2170" y="640" as="targetPoint" />
          </mxGeometry>
        </mxCell>
        <mxCell id="2PH9vJhA5PezDJRlQtpC-44" value="" style="endArrow=none;html=1;rounded=0;entryX=0;entryY=0.5;entryDx=0;entryDy=0;exitX=0.5;exitY=0;exitDx=0;exitDy=0;" edge="1" parent="1" source="2PH9vJhA5PezDJRlQtpC-1" target="2PH9vJhA5PezDJRlQtpC-38">
          <mxGeometry relative="1" as="geometry">
            <mxPoint x="1990" y="1140" as="sourcePoint" />
            <mxPoint x="2180" y="650" as="targetPoint" />
          </mxGeometry>
        </mxCell>
        <mxCell id="2PH9vJhA5PezDJRlQtpC-45" value="" style="endArrow=none;html=1;rounded=0;entryX=1;entryY=1;entryDx=0;entryDy=0;exitX=0.5;exitY=0;exitDx=0;exitDy=0;" edge="1" parent="1" source="2PH9vJhA5PezDJRlQtpC-31" target="2PH9vJhA5PezDJRlQtpC-38">
          <mxGeometry relative="1" as="geometry">
            <mxPoint x="2000" y="1150" as="sourcePoint" />
            <mxPoint x="2190" y="660" as="targetPoint" />
          </mxGeometry>
        </mxCell>
        <mxCell id="2PH9vJhA5PezDJRlQtpC-46" value="" style="endArrow=none;html=1;rounded=0;entryX=1;entryY=0.5;entryDx=0;entryDy=0;exitX=0.5;exitY=0;exitDx=0;exitDy=0;" edge="1" parent="1" source="2PH9vJhA5PezDJRlQtpC-37" target="2PH9vJhA5PezDJRlQtpC-38">
          <mxGeometry relative="1" as="geometry">
            <mxPoint x="2010" y="1160" as="sourcePoint" />
            <mxPoint x="2200" y="670" as="targetPoint" />
          </mxGeometry>
        </mxCell>
        <mxCell id="2PH9vJhA5PezDJRlQtpC-55" style="edgeStyle=orthogonalEdgeStyle;rounded=0;orthogonalLoop=1;jettySize=auto;html=1;exitX=0.5;exitY=1;exitDx=0;exitDy=0;dashed=1;entryX=0.5;entryY=1;entryDx=0;entryDy=0;" edge="1" parent="1" source="2PH9vJhA5PezDJRlQtpC-52" target="JYLx7IT0yjpOkWcfXpyr-13">
          <mxGeometry relative="1" as="geometry">
            <mxPoint x="370" y="1250" as="targetPoint" />
            <Array as="points">
              <mxPoint x="1155" y="1370" />
              <mxPoint x="360" y="1370" />
            </Array>
          </mxGeometry>
        </mxCell>
        <mxCell id="2PH9vJhA5PezDJRlQtpC-52" value="fesztivál" style="shape=rhombus;perimeter=rhombusPerimeter;whiteSpace=wrap;html=1;align=center;" vertex="1" parent="1">
          <mxGeometry x="1120" y="1170" width="70" height="60" as="geometry" />
        </mxCell>
        <mxCell id="2PH9vJhA5PezDJRlQtpC-53" value="" style="endArrow=none;dashed=1;html=1;dashPattern=1 3;strokeWidth=2;rounded=0;" edge="1" parent="1">
          <mxGeometry width="50" height="50" relative="1" as="geometry">
            <mxPoint x="1140.12" y="1209.35" as="sourcePoint" />
            <mxPoint x="1169.8799999999999" y="1209.4099999999999" as="targetPoint" />
          </mxGeometry>
        </mxCell>
        <mxCell id="2PH9vJhA5PezDJRlQtpC-54" value="" style="endArrow=none;html=1;rounded=0;entryX=0.5;entryY=1;entryDx=0;entryDy=0;exitX=0.5;exitY=0;exitDx=0;exitDy=0;" edge="1" parent="1" source="2PH9vJhA5PezDJRlQtpC-52" target="2PH9vJhA5PezDJRlQtpC-2">
          <mxGeometry relative="1" as="geometry">
            <mxPoint x="1085" y="1195" as="sourcePoint" />
            <mxPoint x="1010" y="1145" as="targetPoint" />
          </mxGeometry>
        </mxCell>
        <mxCell id="2PH9vJhA5PezDJRlQtpC-59" style="edgeStyle=orthogonalEdgeStyle;rounded=0;orthogonalLoop=1;jettySize=auto;html=1;exitX=0.5;exitY=1;exitDx=0;exitDy=0;entryX=0;entryY=1;entryDx=0;entryDy=0;dashed=1;" edge="1" parent="1" source="2PH9vJhA5PezDJRlQtpC-56" target="JYLx7IT0yjpOkWcfXpyr-13">
          <mxGeometry relative="1" as="geometry">
            <Array as="points">
              <mxPoint x="1615" y="1410" />
              <mxPoint x="330" y="1410" />
            </Array>
          </mxGeometry>
        </mxCell>
        <mxCell id="2PH9vJhA5PezDJRlQtpC-56" value="fesztivál" style="shape=rhombus;perimeter=rhombusPerimeter;whiteSpace=wrap;html=1;align=center;" vertex="1" parent="1">
          <mxGeometry x="1580" y="1172.5" width="70" height="60" as="geometry" />
        </mxCell>
        <mxCell id="2PH9vJhA5PezDJRlQtpC-57" value="" style="endArrow=none;dashed=1;html=1;dashPattern=1 3;strokeWidth=2;rounded=0;" edge="1" parent="1">
          <mxGeometry width="50" height="50" relative="1" as="geometry">
            <mxPoint x="1600.12" y="1211.85" as="sourcePoint" />
            <mxPoint x="1629.8799999999999" y="1211.9099999999999" as="targetPoint" />
          </mxGeometry>
        </mxCell>
        <mxCell id="2PH9vJhA5PezDJRlQtpC-58" value="" style="endArrow=none;html=1;rounded=0;exitX=0.5;exitY=1;exitDx=0;exitDy=0;entryX=0.5;entryY=0;entryDx=0;entryDy=0;" edge="1" parent="1" source="2PH9vJhA5PezDJRlQtpC-3" target="2PH9vJhA5PezDJRlQtpC-56">
          <mxGeometry relative="1" as="geometry">
            <mxPoint x="1475" y="1147.5" as="sourcePoint" />
            <mxPoint x="1545" y="1198" as="targetPoint" />
          </mxGeometry>
        </mxCell>
        <mxCell id="2PH9vJhA5PezDJRlQtpC-64" style="edgeStyle=orthogonalEdgeStyle;rounded=0;orthogonalLoop=1;jettySize=auto;html=1;exitX=0.5;exitY=1;exitDx=0;exitDy=0;entryX=0.5;entryY=1;entryDx=0;entryDy=0;dashed=1;" edge="1" parent="1" source="2PH9vJhA5PezDJRlQtpC-60" target="JYLx7IT0yjpOkWcfXpyr-14">
          <mxGeometry relative="1" as="geometry" />
        </mxCell>
        <mxCell id="2PH9vJhA5PezDJRlQtpC-60" value="munkahely" style="shape=rhombus;perimeter=rhombusPerimeter;whiteSpace=wrap;html=1;align=center;" vertex="1" parent="1">
          <mxGeometry x="2020" y="1172.5" width="70" height="60" as="geometry" />
        </mxCell>
        <mxCell id="2PH9vJhA5PezDJRlQtpC-61" value="" style="endArrow=none;dashed=1;html=1;dashPattern=1 3;strokeWidth=2;rounded=0;" edge="1" parent="1">
          <mxGeometry width="50" height="50" relative="1" as="geometry">
            <mxPoint x="2040.12" y="1211.85" as="sourcePoint" />
            <mxPoint x="2069.88" y="1211.9099999999999" as="targetPoint" />
          </mxGeometry>
        </mxCell>
        <mxCell id="2PH9vJhA5PezDJRlQtpC-62" value="" style="endArrow=none;html=1;rounded=0;exitX=0.5;exitY=1;exitDx=0;exitDy=0;entryX=0.5;entryY=0;entryDx=0;entryDy=0;" edge="1" parent="1" source="2PH9vJhA5PezDJRlQtpC-6" target="2PH9vJhA5PezDJRlQtpC-60">
          <mxGeometry relative="1" as="geometry">
            <mxPoint x="1890" y="1280" as="sourcePoint" />
            <mxPoint x="2050" y="1280" as="targetPoint" />
          </mxGeometry>
        </mxCell>
        <mxCell id="2PH9vJhA5PezDJRlQtpC-72" style="edgeStyle=orthogonalEdgeStyle;rounded=0;orthogonalLoop=1;jettySize=auto;html=1;exitX=0.5;exitY=1;exitDx=0;exitDy=0;entryX=0.5;entryY=1;entryDx=0;entryDy=0;dashed=1;" edge="1" parent="1" source="2PH9vJhA5PezDJRlQtpC-65" target="JYLx7IT0yjpOkWcfXpyr-16">
          <mxGeometry relative="1" as="geometry">
            <Array as="points">
              <mxPoint x="2785" y="1330" />
              <mxPoint x="3300" y="1330" />
            </Array>
          </mxGeometry>
        </mxCell>
        <mxCell id="2PH9vJhA5PezDJRlQtpC-65" value="résztvevő" style="shape=rhombus;perimeter=rhombusPerimeter;whiteSpace=wrap;html=1;align=center;" vertex="1" parent="1">
          <mxGeometry x="2750" y="1165" width="70" height="60" as="geometry" />
        </mxCell>
        <mxCell id="2PH9vJhA5PezDJRlQtpC-66" value="" style="endArrow=none;dashed=1;html=1;dashPattern=1 3;strokeWidth=2;rounded=0;" edge="1" parent="1">
          <mxGeometry width="50" height="50" relative="1" as="geometry">
            <mxPoint x="2770.12" y="1204.35" as="sourcePoint" />
            <mxPoint x="2799.88" y="1204.4099999999999" as="targetPoint" />
          </mxGeometry>
        </mxCell>
        <mxCell id="2PH9vJhA5PezDJRlQtpC-71" style="edgeStyle=orthogonalEdgeStyle;rounded=0;orthogonalLoop=1;jettySize=auto;html=1;exitX=0.5;exitY=1;exitDx=0;exitDy=0;entryX=0.5;entryY=1;entryDx=0;entryDy=0;dashed=1;" edge="1" parent="1" source="2PH9vJhA5PezDJRlQtpC-67" target="JYLx7IT0yjpOkWcfXpyr-17">
          <mxGeometry relative="1" as="geometry" />
        </mxCell>
        <mxCell id="2PH9vJhA5PezDJRlQtpC-67" value="nyelvtudás" style="shape=rhombus;perimeter=rhombusPerimeter;whiteSpace=wrap;html=1;align=center;" vertex="1" parent="1">
          <mxGeometry x="2840" y="1165" width="70" height="60" as="geometry" />
        </mxCell>
        <mxCell id="2PH9vJhA5PezDJRlQtpC-68" value="" style="endArrow=none;dashed=1;html=1;dashPattern=1 3;strokeWidth=2;rounded=0;" edge="1" parent="1">
          <mxGeometry width="50" height="50" relative="1" as="geometry">
            <mxPoint x="2860.12" y="1204.35" as="sourcePoint" />
            <mxPoint x="2889.88" y="1204.4099999999999" as="targetPoint" />
          </mxGeometry>
        </mxCell>
        <mxCell id="2PH9vJhA5PezDJRlQtpC-69" value="" style="endArrow=none;html=1;rounded=0;exitX=0.5;exitY=1;exitDx=0;exitDy=0;entryX=0.5;entryY=0;entryDx=0;entryDy=0;" edge="1" parent="1" source="2PH9vJhA5PezDJRlQtpC-29" target="2PH9vJhA5PezDJRlQtpC-65">
          <mxGeometry relative="1" as="geometry">
            <mxPoint x="3050" y="1370" as="sourcePoint" />
            <mxPoint x="3210" y="1370" as="targetPoint" />
          </mxGeometry>
        </mxCell>
        <mxCell id="2PH9vJhA5PezDJRlQtpC-70" value="" style="endArrow=none;html=1;rounded=0;exitX=0.5;exitY=1;exitDx=0;exitDy=0;entryX=0.5;entryY=0;entryDx=0;entryDy=0;" edge="1" parent="1" source="2PH9vJhA5PezDJRlQtpC-29" target="2PH9vJhA5PezDJRlQtpC-67">
          <mxGeometry relative="1" as="geometry">
            <mxPoint x="2710" y="1130" as="sourcePoint" />
            <mxPoint x="2795" y="1175" as="targetPoint" />
          </mxGeometry>
        </mxCell>
        <mxCell id="2PH9vJhA5PezDJRlQtpC-76" style="edgeStyle=orthogonalEdgeStyle;rounded=0;orthogonalLoop=1;jettySize=auto;html=1;exitX=0.5;exitY=1;exitDx=0;exitDy=0;entryX=0;entryY=0;entryDx=0;entryDy=0;dashed=1;" edge="1" parent="1" source="2PH9vJhA5PezDJRlQtpC-73" target="JYLx7IT0yjpOkWcfXpyr-13">
          <mxGeometry relative="1" as="geometry">
            <Array as="points">
              <mxPoint x="3825" y="1450" />
              <mxPoint x="260" y="1450" />
              <mxPoint x="260" y="1140" />
              <mxPoint x="330" y="1140" />
            </Array>
          </mxGeometry>
        </mxCell>
        <mxCell id="2PH9vJhA5PezDJRlQtpC-73" value="fesztivál" style="shape=rhombus;perimeter=rhombusPerimeter;whiteSpace=wrap;html=1;align=center;" vertex="1" parent="1">
          <mxGeometry x="3790" y="1167.5" width="70" height="60" as="geometry" />
        </mxCell>
        <mxCell id="2PH9vJhA5PezDJRlQtpC-74" value="" style="endArrow=none;dashed=1;html=1;dashPattern=1 3;strokeWidth=2;rounded=0;" edge="1" parent="1">
          <mxGeometry width="50" height="50" relative="1" as="geometry">
            <mxPoint x="3810.12" y="1206.85" as="sourcePoint" />
            <mxPoint x="3839.88" y="1206.9099999999999" as="targetPoint" />
          </mxGeometry>
        </mxCell>
        <mxCell id="2PH9vJhA5PezDJRlQtpC-75" value="" style="endArrow=none;html=1;rounded=0;exitX=0.5;exitY=1;exitDx=0;exitDy=0;entryX=0.5;entryY=0;entryDx=0;entryDy=0;" edge="1" parent="1" source="2PH9vJhA5PezDJRlQtpC-37" target="2PH9vJhA5PezDJRlQtpC-73">
          <mxGeometry relative="1" as="geometry">
            <mxPoint x="3630" y="1330" as="sourcePoint" />
            <mxPoint x="3790" y="1330" as="targetPoint" />
          </mxGeometry>
        </mxCell>
        <mxCell id="2PH9vJhA5PezDJRlQtpC-86" style="edgeStyle=orthogonalEdgeStyle;rounded=0;orthogonalLoop=1;jettySize=auto;html=1;exitX=0.5;exitY=1;exitDx=0;exitDy=0;entryX=0;entryY=0.5;entryDx=0;entryDy=0;dashed=1;" edge="1" parent="1" source="2PH9vJhA5PezDJRlQtpC-77" target="JYLx7IT0yjpOkWcfXpyr-13">
          <mxGeometry relative="1" as="geometry">
            <Array as="points">
              <mxPoint x="2495" y="1430" />
              <mxPoint x="280" y="1430" />
              <mxPoint x="280" y="1195" />
            </Array>
          </mxGeometry>
        </mxCell>
        <mxCell id="2PH9vJhA5PezDJRlQtpC-77" value="fesztivál" style="shape=rhombus;perimeter=rhombusPerimeter;whiteSpace=wrap;html=1;align=center;" vertex="1" parent="1">
          <mxGeometry x="2460" y="1170" width="70" height="60" as="geometry" />
        </mxCell>
        <mxCell id="2PH9vJhA5PezDJRlQtpC-78" value="" style="endArrow=none;dashed=1;html=1;dashPattern=1 3;strokeWidth=2;rounded=0;" edge="1" parent="1">
          <mxGeometry width="50" height="50" relative="1" as="geometry">
            <mxPoint x="2480.12" y="1209.35" as="sourcePoint" />
            <mxPoint x="2509.88" y="1209.4099999999999" as="targetPoint" />
          </mxGeometry>
        </mxCell>
        <mxCell id="2PH9vJhA5PezDJRlQtpC-83" value="" style="endArrow=none;html=1;rounded=0;exitX=0.5;exitY=1;exitDx=0;exitDy=0;entryX=0.5;entryY=0;entryDx=0;entryDy=0;" edge="1" parent="1" source="2PH9vJhA5PezDJRlQtpC-14" target="2PH9vJhA5PezDJRlQtpC-77">
          <mxGeometry relative="1" as="geometry">
            <mxPoint x="2440" y="1250" as="sourcePoint" />
            <mxPoint x="2600" y="1250" as="targetPoint" />
          </mxGeometry>
        </mxCell>
      </root>
    </mxGraphModel>
  </diagram>
</mxfile>
